<svg width="48" height="40" viewBox="0 0 48 40" fill="none" xmlns="http://www.w3.org/2000/svg">
<path d="M19.125 0C19.4234 0 19.7095 0.118526 19.9205 0.329505C20.1315 0.540483 20.25 0.826631 20.25 1.125V3H27.75V1.125C27.75 0.826631 27.8685 0.540483 28.0795 0.329505C28.2905 0.118526 28.5766 0 28.875 0C29.1734 0 29.4595 0.118526 29.6705 0.329505C29.8815 0.540483 30 0.826631 30 1.125V3H31.875C33.324 3 34.5 4.176 34.5 5.625V21.375C34.5 22.0712 34.2234 22.7389 33.7312 23.2312C33.2389 23.7234 32.5712 24 31.875 24H16.125C15.4288 24 14.7611 23.7234 14.2688 23.2312C13.7766 22.7389 13.5 22.0712 13.5 21.375V5.625C13.5 4.176 14.676 3 16.125 3H18V1.125C18 0.826631 18.1185 0.540483 18.3295 0.329505C18.5405 0.118526 18.8266 0 19.125 0ZM15.75 11.25V21.375C15.75 21.582 15.918 21.75 16.125 21.75H31.875C31.9745 21.75 32.0698 21.7105 32.1402 21.6402C32.2105 21.5698 32.25 21.4745 32.25 21.375V11.25H15.75ZM31.875 5.25H16.125C16.0255 5.25 15.9302 5.28951 15.8598 5.35984C15.7895 5.43016 15.75 5.52554 15.75 5.625V9H32.25V5.625C32.25 5.52554 32.2105 5.43016 32.1402 5.35984C32.0698 5.28951 31.9745 5.25 31.875 5.25Z" fill="#828282"/>
<path d="M0.766484 33.51C0.766484 32.83 0.923151 32.22 1.23648 31.68C1.55648 31.14 1.98648 30.72 2.52648 30.42C3.07315 30.1133 3.66982 29.96 4.31648 29.96C5.05648 29.96 5.71315 30.1433 6.28648 30.51C6.86648 30.87 7.28648 31.3833 7.54648 32.05H6.17648C5.99648 31.6833 5.74648 31.41 5.42648 31.23C5.10648 31.05 4.73648 30.96 4.31648 30.96C3.85648 30.96 3.44648 31.0633 3.08648 31.27C2.72648 31.4767 2.44315 31.7733 2.23648 32.16C2.03648 32.5467 1.93648 32.9967 1.93648 33.51C1.93648 34.0233 2.03648 34.4733 2.23648 34.86C2.44315 35.2467 2.72648 35.5467 3.08648 35.76C3.44648 35.9667 3.85648 36.07 4.31648 36.07C4.73648 36.07 5.10648 35.98 5.42648 35.8C5.74648 35.62 5.99648 35.3467 6.17648 34.98H7.54648C7.28648 35.6467 6.86648 36.16 6.28648 36.52C5.71315 36.88 5.05648 37.06 4.31648 37.06C3.66315 37.06 3.06648 36.91 2.52648 36.61C1.98648 36.3033 1.55648 35.88 1.23648 35.34C0.923151 34.8 0.766484 34.19 0.766484 33.51ZM8.50086 34.22C8.50086 33.6667 8.61419 33.1767 8.84086 32.75C9.07419 32.3233 9.38753 31.9933 9.78086 31.76C10.1809 31.52 10.6209 31.4 11.1009 31.4C11.5342 31.4 11.9109 31.4867 12.2309 31.66C12.5575 31.8267 12.8175 32.0367 13.0109 32.29V31.49H14.1609V37H13.0109V36.18C12.8175 36.44 12.5542 36.6567 12.2209 36.83C11.8875 37.0033 11.5075 37.09 11.0809 37.09C10.6075 37.09 10.1742 36.97 9.78086 36.73C9.38753 36.4833 9.07419 36.1433 8.84086 35.71C8.61419 35.27 8.50086 34.7733 8.50086 34.22ZM13.0109 34.24C13.0109 33.86 12.9309 33.53 12.7709 33.25C12.6175 32.97 12.4142 32.7567 12.1609 32.61C11.9075 32.4633 11.6342 32.39 11.3409 32.39C11.0475 32.39 10.7742 32.4633 10.5209 32.61C10.2675 32.75 10.0609 32.96 9.90086 33.24C9.74753 33.5133 9.67086 33.84 9.67086 34.22C9.67086 34.6 9.74753 34.9333 9.90086 35.22C10.0609 35.5067 10.2675 35.7267 10.5209 35.88C10.7809 36.0267 11.0542 36.1 11.3409 36.1C11.6342 36.1 11.9075 36.0267 12.1609 35.88C12.4142 35.7333 12.6175 35.52 12.7709 35.24C12.9309 34.9533 13.0109 34.62 13.0109 34.24ZM16.7982 29.6V37H15.6582V29.6H16.7982ZM23.3449 34.11C23.3449 34.3167 23.3316 34.5033 23.3049 34.67H19.0949C19.1283 35.11 19.2916 35.4633 19.5849 35.73C19.8783 35.9967 20.2383 36.13 20.6649 36.13C21.2783 36.13 21.7116 35.8733 21.9649 35.36H23.1949C23.0283 35.8667 22.7249 36.2833 22.2849 36.61C21.8516 36.93 21.3116 37.09 20.6649 37.09C20.1383 37.09 19.6649 36.9733 19.2449 36.74C18.8316 36.5 18.5049 36.1667 18.2649 35.74C18.0316 35.3067 17.9149 34.8067 17.9149 34.24C17.9149 33.6733 18.0283 33.1767 18.2549 32.75C18.4883 32.3167 18.8116 31.9833 19.2249 31.75C19.6449 31.5167 20.1249 31.4 20.6649 31.4C21.1849 31.4 21.6483 31.5133 22.0549 31.74C22.4616 31.9667 22.7783 32.2867 23.0049 32.7C23.2316 33.1067 23.3449 33.5767 23.3449 34.11ZM22.1549 33.75C22.1483 33.33 21.9983 32.9933 21.7049 32.74C21.4116 32.4867 21.0483 32.36 20.6149 32.36C20.2216 32.36 19.8849 32.4867 19.6049 32.74C19.3249 32.9867 19.1583 33.3233 19.1049 33.75H22.1549ZM27.2468 31.4C27.6801 31.4 28.0668 31.49 28.4068 31.67C28.7535 31.85 29.0235 32.1167 29.2168 32.47C29.4101 32.8233 29.5068 33.25 29.5068 33.75V37H28.3768V33.92C28.3768 33.4267 28.2535 33.05 28.0068 32.79C27.7601 32.5233 27.4235 32.39 26.9968 32.39C26.5701 32.39 26.2301 32.5233 25.9768 32.79C25.7301 33.05 25.6068 33.4267 25.6068 33.92V37H24.4668V31.49H25.6068V32.12C25.7935 31.8933 26.0301 31.7167 26.3168 31.59C26.6101 31.4633 26.9201 31.4 27.2468 31.4ZM30.5809 34.22C30.5809 33.6667 30.6943 33.1767 30.9209 32.75C31.1543 32.3233 31.4676 31.9933 31.8609 31.76C32.2609 31.52 32.7043 31.4 33.1909 31.4C33.5509 31.4 33.9043 31.48 34.2509 31.64C34.6043 31.7933 34.8843 32 35.0909 32.26V29.6H36.2409V37H35.0909V36.17C34.9043 36.4367 34.6443 36.6567 34.3109 36.83C33.9843 37.0033 33.6076 37.09 33.1809 37.09C32.7009 37.09 32.2609 36.97 31.8609 36.73C31.4676 36.4833 31.1543 36.1433 30.9209 35.71C30.6943 35.27 30.5809 34.7733 30.5809 34.22ZM35.0909 34.24C35.0909 33.86 35.0109 33.53 34.8509 33.25C34.6976 32.97 34.4943 32.7567 34.2409 32.61C33.9876 32.4633 33.7143 32.39 33.4209 32.39C33.1276 32.39 32.8543 32.4633 32.6009 32.61C32.3476 32.75 32.1409 32.96 31.9809 33.24C31.8276 33.5133 31.7509 33.84 31.7509 34.22C31.7509 34.6 31.8276 34.9333 31.9809 35.22C32.1409 35.5067 32.3476 35.7267 32.6009 35.88C32.8609 36.0267 33.1343 36.1 33.4209 36.1C33.7143 36.1 33.9876 36.0267 34.2409 35.88C34.4943 35.7333 34.6976 35.52 34.8509 35.24C35.0109 34.9533 35.0909 34.62 35.0909 34.24ZM37.3583 34.22C37.3583 33.6667 37.4716 33.1767 37.6983 32.75C37.9316 32.3233 38.2449 31.9933 38.6383 31.76C39.0383 31.52 39.4783 31.4 39.9583 31.4C40.3916 31.4 40.7683 31.4867 41.0883 31.66C41.4149 31.8267 41.6749 32.0367 41.8683 32.29V31.49H43.0183V37H41.8683V36.18C41.6749 36.44 41.4116 36.6567 41.0783 36.83C40.7449 37.0033 40.3649 37.09 39.9383 37.09C39.4649 37.09 39.0316 36.97 38.6383 36.73C38.2449 36.4833 37.9316 36.1433 37.6983 35.71C37.4716 35.27 37.3583 34.7733 37.3583 34.22ZM41.8683 34.24C41.8683 33.86 41.7883 33.53 41.6283 33.25C41.4749 32.97 41.2716 32.7567 41.0183 32.61C40.7649 32.4633 40.4916 32.39 40.1983 32.39C39.9049 32.39 39.6316 32.4633 39.3783 32.61C39.1249 32.75 38.9183 32.96 38.7583 33.24C38.6049 33.5133 38.5283 33.84 38.5283 34.22C38.5283 34.6 38.6049 34.9333 38.7583 35.22C38.9183 35.5067 39.1249 35.7267 39.3783 35.88C39.6383 36.0267 39.9116 36.1 40.1983 36.1C40.4916 36.1 40.7649 36.0267 41.0183 35.88C41.2716 35.7333 41.4749 35.52 41.6283 35.24C41.7883 34.9533 41.8683 34.62 41.8683 34.24ZM45.6556 32.29C45.8223 32.01 46.0423 31.7933 46.3156 31.64C46.5956 31.48 46.9256 31.4 47.3056 31.4V32.58H47.0156C46.569 32.58 46.229 32.6933 45.9956 32.92C45.769 33.1467 45.6556 33.54 45.6556 34.1V37H44.5156V31.49H45.6556V32.29Z" fill="#828282"/>
</svg>
