<svg width="30" height="40" viewBox="0 0 30 40" fill="none" xmlns="http://www.w3.org/2000/svg">
<path d="M7 21V9L15 3L23 9V21H17V14H13V21H7Z" fill="#006973"/>
<path d="M6.30488 30.05V37H5.16488V33.96H1.89488V37H0.754883V30.05H1.89488V33.03H5.16488V30.05H6.30488ZM10.1957 37.09C9.67566 37.09 9.20566 36.9733 8.78566 36.74C8.36566 36.5 8.03566 36.1667 7.79566 35.74C7.55566 35.3067 7.43566 34.8067 7.43566 34.24C7.43566 33.68 7.559 33.1833 7.80566 32.75C8.05233 32.3167 8.389 31.9833 8.81566 31.75C9.24233 31.5167 9.719 31.4 10.2457 31.4C10.7723 31.4 11.249 31.5167 11.6757 31.75C12.1023 31.9833 12.439 32.3167 12.6857 32.75C12.9323 33.1833 13.0557 33.68 13.0557 34.24C13.0557 34.8 12.929 35.2967 12.6757 35.73C12.4223 36.1633 12.0757 36.5 11.6357 36.74C11.2023 36.9733 10.7223 37.09 10.1957 37.09ZM10.1957 36.1C10.489 36.1 10.7623 36.03 11.0157 35.89C11.2757 35.75 11.4857 35.54 11.6457 35.26C11.8057 34.98 11.8857 34.64 11.8857 34.24C11.8857 33.84 11.809 33.5033 11.6557 33.23C11.5023 32.95 11.299 32.74 11.0457 32.6C10.7923 32.46 10.519 32.39 10.2257 32.39C9.93233 32.39 9.659 32.46 9.40566 32.6C9.159 32.74 8.96233 32.95 8.81566 33.23C8.669 33.5033 8.59566 33.84 8.59566 34.24C8.59566 34.8333 8.74566 35.2933 9.04566 35.62C9.35233 35.94 9.73566 36.1 10.1957 36.1ZM20.8526 31.4C21.286 31.4 21.6726 31.49 22.0126 31.67C22.3593 31.85 22.6293 32.1167 22.8226 32.47C23.0226 32.8233 23.1226 33.25 23.1226 33.75V37H21.9926V33.92C21.9926 33.4267 21.8693 33.05 21.6226 32.79C21.376 32.5233 21.0393 32.39 20.6126 32.39C20.186 32.39 19.846 32.5233 19.5926 32.79C19.346 33.05 19.2226 33.4267 19.2226 33.92V37H18.0926V33.92C18.0926 33.4267 17.9693 33.05 17.7226 32.79C17.476 32.5233 17.1393 32.39 16.7126 32.39C16.286 32.39 15.946 32.5233 15.6926 32.79C15.446 33.05 15.3226 33.4267 15.3226 33.92V37H14.1826V31.49H15.3226V32.12C15.5093 31.8933 15.746 31.7167 16.0326 31.59C16.3193 31.4633 16.626 31.4 16.9526 31.4C17.3926 31.4 17.786 31.4933 18.1326 31.68C18.4793 31.8667 18.746 32.1367 18.9326 32.49C19.0993 32.1567 19.3593 31.8933 19.7126 31.7C20.066 31.5 20.446 31.4 20.8526 31.4ZM29.6232 34.11C29.6232 34.3167 29.6099 34.5033 29.5832 34.67H25.3732C25.4066 35.11 25.5699 35.4633 25.8632 35.73C26.1566 35.9967 26.5166 36.13 26.9432 36.13C27.5566 36.13 27.9899 35.8733 28.2432 35.36H29.4732C29.3066 35.8667 29.0032 36.2833 28.5632 36.61C28.1299 36.93 27.5899 37.09 26.9432 37.09C26.4166 37.09 25.9432 36.9733 25.5232 36.74C25.1099 36.5 24.7832 36.1667 24.5432 35.74C24.3099 35.3067 24.1932 34.8067 24.1932 34.24C24.1932 33.6733 24.3066 33.1767 24.5332 32.75C24.7666 32.3167 25.0899 31.9833 25.5032 31.75C25.9232 31.5167 26.4032 31.4 26.9432 31.4C27.4632 31.4 27.9266 31.5133 28.3332 31.74C28.7399 31.9667 29.0566 32.2867 29.2832 32.7C29.5099 33.1067 29.6232 33.5767 29.6232 34.11ZM28.4332 33.75C28.4266 33.33 28.2766 32.9933 27.9832 32.74C27.6899 32.4867 27.3266 32.36 26.8932 32.36C26.4999 32.36 26.1632 32.4867 25.8832 32.74C25.6032 32.9867 25.4366 33.3233 25.3832 33.75H28.4332Z" fill="#006973"/>
</svg>
