<svg width="30" height="40" viewBox="0 0 30 40" fill="none" xmlns="http://www.w3.org/2000/svg">
<g clip-path="url(#clip0_343_160)">
<path d="M25.6 2H6.4C5.08 2 4.012 3.08 4.012 4.4L4 26L8.8 21.2H25.6C26.92 21.2 28 20.12 28 18.8V4.4C28 3.08 26.92 2 25.6 2ZM17.2 12.8H14.8V5.6H17.2V12.8ZM17.2 17.6H14.8V15.2H17.2V17.6Z" fill="#828282"/>
</g>
<path d="M7.97367 37H6.83367L3.40367 31.81V37H2.26367V30.04H3.40367L6.83367 35.22V30.04H7.97367V37ZM14.5207 34.11C14.5207 34.3167 14.5074 34.5033 14.4807 34.67H10.2707C10.304 35.11 10.4674 35.4633 10.7607 35.73C11.054 35.9967 11.414 36.13 11.8407 36.13C12.454 36.13 12.8874 35.8733 13.1407 35.36H14.3707C14.204 35.8667 13.9007 36.2833 13.4607 36.61C13.0274 36.93 12.4874 37.09 11.8407 37.09C11.314 37.09 10.8407 36.9733 10.4207 36.74C10.0074 36.5 9.6807 36.1667 9.4407 35.74C9.20737 35.3067 9.0907 34.8067 9.0907 34.24C9.0907 33.6733 9.20404 33.1767 9.4307 32.75C9.66404 32.3167 9.98737 31.9833 10.4007 31.75C10.8207 31.5167 11.3007 31.4 11.8407 31.4C12.3607 31.4 12.824 31.5133 13.2307 31.74C13.6374 31.9667 13.954 32.2867 14.1807 32.7C14.4074 33.1067 14.5207 33.5767 14.5207 34.11ZM13.3307 33.75C13.324 33.33 13.174 32.9933 12.8807 32.74C12.5874 32.4867 12.224 32.36 11.7907 32.36C11.3974 32.36 11.0607 32.4867 10.7807 32.74C10.5007 32.9867 10.334 33.3233 10.2807 33.75H13.3307ZM23.0426 31.49L21.3326 37H20.1326L19.0226 32.93L17.9126 37H16.7126L14.9926 31.49H16.1526L17.3026 35.92L18.4726 31.49H19.6626L20.7826 35.9L21.9226 31.49H23.0426ZM25.8945 37.09C25.4612 37.09 25.0712 37.0133 24.7245 36.86C24.3845 36.7 24.1145 36.4867 23.9145 36.22C23.7145 35.9467 23.6079 35.6433 23.5945 35.31H24.7745C24.7945 35.5433 24.9045 35.74 25.1045 35.9C25.3112 36.0533 25.5679 36.13 25.8745 36.13C26.1945 36.13 26.4412 36.07 26.6145 35.95C26.7945 35.8233 26.8845 35.6633 26.8845 35.47C26.8845 35.2633 26.7845 35.11 26.5845 35.01C26.3912 34.91 26.0812 34.8 25.6545 34.68C25.2412 34.5667 24.9045 34.4567 24.6445 34.35C24.3845 34.2433 24.1579 34.08 23.9645 33.86C23.7779 33.64 23.6845 33.35 23.6845 32.99C23.6845 32.6967 23.7712 32.43 23.9445 32.19C24.1179 31.9433 24.3645 31.75 24.6845 31.61C25.0112 31.47 25.3845 31.4 25.8045 31.4C26.4312 31.4 26.9345 31.56 27.3145 31.88C27.7012 32.1933 27.9079 32.6233 27.9345 33.17H26.7945C26.7745 32.9233 26.6745 32.7267 26.4945 32.58C26.3145 32.4333 26.0712 32.36 25.7645 32.36C25.4645 32.36 25.2345 32.4167 25.0745 32.53C24.9145 32.6433 24.8345 32.7933 24.8345 32.98C24.8345 33.1267 24.8879 33.25 24.9945 33.35C25.1012 33.45 25.2312 33.53 25.3845 33.59C25.5379 33.6433 25.7645 33.7133 26.0645 33.8C26.4645 33.9067 26.7912 34.0167 27.0445 34.13C27.3045 34.2367 27.5279 34.3967 27.7145 34.61C27.9012 34.8233 27.9979 35.1067 28.0045 35.46C28.0045 35.7733 27.9179 36.0533 27.7445 36.3C27.5712 36.5467 27.3245 36.74 27.0045 36.88C26.6912 37.02 26.3212 37.09 25.8945 37.09Z" fill="#828282"/>
<defs>
<clipPath id="clip0_343_160">
<rect width="24" height="24" fill="white" transform="translate(2)"/>
</clipPath>
</defs>
</svg>
