<svg width="30" height="40" viewBox="0 0 30 40" fill="none" xmlns="http://www.w3.org/2000/svg">
<path d="M20 18C18.89 18 18 18.89 18 20C18 20.5304 18.2107 21.0391 18.5858 21.4142C18.9609 21.7893 19.4696 22 20 22C20.5304 22 21.0391 21.7893 21.4142 21.4142C21.7893 21.0391 22 20.5304 22 20C22 19.4696 21.7893 18.9609 21.4142 18.5858C21.0391 18.2107 20.5304 18 20 18ZM4 2V4H6L9.6 11.59L8.24 14.04C8.09 14.32 8 14.65 8 15C8 15.5304 8.21071 16.0391 8.58579 16.4142C8.96086 16.7893 9.46957 17 10 17H22V15H10.42C10.3537 15 10.2901 14.9737 10.2432 14.9268C10.1963 14.8799 10.17 14.8163 10.17 14.75C10.17 14.7 10.18 14.66 10.2 14.63L11.1 13H18.55C19.3 13 19.96 12.58 20.3 11.97L23.88 5.5C23.95 5.34 24 5.17 24 5C24 4.73478 23.8946 4.48043 23.7071 4.29289C23.5196 4.10536 23.2652 4 23 4H8.21L7.27 2M10 18C8.89 18 8 18.89 8 20C8 20.5304 8.21071 21.0391 8.58579 21.4142C8.96086 21.7893 9.46957 22 10 22C10.5304 22 11.0391 21.7893 11.4142 21.4142C11.7893 21.0391 12 20.5304 12 20C12 19.4696 11.7893 18.9609 11.4142 18.5858C11.0391 18.2107 10.5304 18 10 18Z" fill="#006973"/>
<path d="M5.1982 37.07C4.73154 37.07 4.31154 36.99 3.9382 36.83C3.56487 36.6633 3.27154 36.43 3.0582 36.13C2.84487 35.83 2.7382 35.48 2.7382 35.08H3.9582C3.98487 35.38 4.10154 35.6267 4.3082 35.82C4.52154 36.0133 4.8182 36.11 5.1982 36.11C5.59154 36.11 5.8982 36.0167 6.1182 35.83C6.3382 35.6367 6.4482 35.39 6.4482 35.09C6.4482 34.8567 6.3782 34.6667 6.2382 34.52C6.10487 34.3733 5.93487 34.26 5.7282 34.18C5.5282 34.1 5.2482 34.0133 4.8882 33.92C4.43487 33.8 4.06487 33.68 3.7782 33.56C3.4982 33.4333 3.2582 33.24 3.0582 32.98C2.8582 32.72 2.7582 32.3733 2.7582 31.94C2.7582 31.54 2.8582 31.19 3.0582 30.89C3.2582 30.59 3.5382 30.36 3.8982 30.2C4.2582 30.04 4.67487 29.96 5.1482 29.96C5.82154 29.96 6.37154 30.13 6.7982 30.47C7.23154 30.8033 7.47154 31.2633 7.5182 31.85H6.2582C6.2382 31.5967 6.1182 31.38 5.8982 31.2C5.6782 31.02 5.3882 30.93 5.0282 30.93C4.70154 30.93 4.43487 31.0133 4.2282 31.18C4.02154 31.3467 3.9182 31.5867 3.9182 31.9C3.9182 32.1133 3.98154 32.29 4.1082 32.43C4.24154 32.5633 4.4082 32.67 4.6082 32.75C4.8082 32.83 5.08154 32.9167 5.4282 33.01C5.8882 33.1367 6.26154 33.2633 6.5482 33.39C6.84154 33.5167 7.0882 33.7133 7.2882 33.98C7.49487 34.24 7.5982 34.59 7.5982 35.03C7.5982 35.3833 7.50154 35.7167 7.3082 36.03C7.12154 36.3433 6.84487 36.5967 6.4782 36.79C6.1182 36.9767 5.69154 37.07 5.1982 37.07ZM11.7934 31.4C12.2134 31.4 12.5867 31.49 12.9134 31.67C13.2467 31.85 13.5067 32.1167 13.6934 32.47C13.8867 32.8233 13.9834 33.25 13.9834 33.75V37H12.8534V33.92C12.8534 33.4267 12.73 33.05 12.4834 32.79C12.2367 32.5233 11.9 32.39 11.4734 32.39C11.0467 32.39 10.7067 32.5233 10.4534 32.79C10.2067 33.05 10.0834 33.4267 10.0834 33.92V37H8.94336V29.6H10.0834V32.13C10.2767 31.8967 10.52 31.7167 10.8134 31.59C11.1134 31.4633 11.44 31.4 11.7934 31.4ZM17.8275 37.09C17.3075 37.09 16.8375 36.9733 16.4175 36.74C15.9975 36.5 15.6675 36.1667 15.4275 35.74C15.1875 35.3067 15.0675 34.8067 15.0675 34.24C15.0675 33.68 15.1908 33.1833 15.4375 32.75C15.6842 32.3167 16.0208 31.9833 16.4475 31.75C16.8742 31.5167 17.3508 31.4 17.8775 31.4C18.4042 31.4 18.8808 31.5167 19.3075 31.75C19.7342 31.9833 20.0708 32.3167 20.3175 32.75C20.5642 33.1833 20.6875 33.68 20.6875 34.24C20.6875 34.8 20.5608 35.2967 20.3075 35.73C20.0542 36.1633 19.7075 36.5 19.2675 36.74C18.8342 36.9733 18.3542 37.09 17.8275 37.09ZM17.8275 36.1C18.1208 36.1 18.3942 36.03 18.6475 35.89C18.9075 35.75 19.1175 35.54 19.2775 35.26C19.4375 34.98 19.5175 34.64 19.5175 34.24C19.5175 33.84 19.4408 33.5033 19.2875 33.23C19.1342 32.95 18.9308 32.74 18.6775 32.6C18.4242 32.46 18.1508 32.39 17.8575 32.39C17.5642 32.39 17.2908 32.46 17.0375 32.6C16.7908 32.74 16.5942 32.95 16.4475 33.23C16.3008 33.5033 16.2275 33.84 16.2275 34.24C16.2275 34.8333 16.3775 35.2933 16.6775 35.62C16.9842 35.94 17.3675 36.1 17.8275 36.1ZM22.9545 32.3C23.1478 32.0467 23.4111 31.8333 23.7445 31.66C24.0778 31.4867 24.4545 31.4 24.8745 31.4C25.3545 31.4 25.7911 31.52 26.1845 31.76C26.5845 31.9933 26.8978 32.3233 27.1245 32.75C27.3511 33.1767 27.4645 33.6667 27.4645 34.22C27.4645 34.7733 27.3511 35.27 27.1245 35.71C26.8978 36.1433 26.5845 36.4833 26.1845 36.73C25.7911 36.97 25.3545 37.09 24.8745 37.09C24.4545 37.09 24.0811 37.0067 23.7545 36.84C23.4278 36.6667 23.1611 36.4533 22.9545 36.2V39.62H21.8145V31.49H22.9545V32.3ZM26.3045 34.22C26.3045 33.84 26.2245 33.5133 26.0645 33.24C25.9111 32.96 25.7045 32.75 25.4445 32.61C25.1911 32.4633 24.9178 32.39 24.6245 32.39C24.3378 32.39 24.0645 32.4633 23.8045 32.61C23.5511 32.7567 23.3445 32.97 23.1845 33.25C23.0311 33.53 22.9545 33.86 22.9545 34.24C22.9545 34.62 23.0311 34.9533 23.1845 35.24C23.3445 35.52 23.5511 35.7333 23.8045 35.88C24.0645 36.0267 24.3378 36.1 24.6245 36.1C24.9178 36.1 25.1911 36.0267 25.4445 35.88C25.7045 35.7267 25.9111 35.5067 26.0645 35.22C26.2245 34.9333 26.3045 34.6 26.3045 34.22Z" fill="#006973"/>
</svg>
